<svg xmlns="http://www.w3.org/2000/svg" xmlns:xlink="http://www.w3.org/1999/xlink" width="10" height="6" version="1.1" viewBox="0 0 10 6"><title>Rectangle 2</title><desc>Created with Sketch.</desc><g id="V1.1-浅色模式" fill="none" fill-rule="evenodd" stroke="none" stroke-width="1"><g id="10" fill="#FFF" fill-rule="nonzero" transform="translate(-25.000000, -142.000000)"><g id="侧边导航栏备份"><g id="编组-9" transform="translate(0.000000, 116.000000)"><g id="下拉箭头-默认#999999-01备份"><g transform="translate(18.000000, 0.000000) translate(12.000000, 29.000000) scale(1, -1) translate(-12.000000, -29.000000) translate(7.000000, 26.000000)"><path id="Rectangle-2" d="M9.14644661,0.146446609 C9.34170876,-0.0488155365 9.65829124,-0.0488155365 9.85355339,0.146446609 C10.0488155,0.341708755 10.0488155,0.658291245 9.85355339,0.853553391 L5.35355339,5.35355339 C5.15829124,5.54881554 4.84170876,5.54881554 4.64644661,5.35355339 L0.146446609,0.853553391 C-0.0488155365,0.658291245 -0.0488155365,0.341708755 0.146446609,0.146446609 C0.341708755,-0.0488155365 0.658291245,-0.0488155365 0.853553391,0.146446609 L5,4.29289322 L9.14644661,0.146446609 Z" transform="translate(5.000000, 2.750000) scale(1, -1) translate(-5.000000, -2.750000)"/></g></g></g></g></g></g></svg>