<svg xmlns="http://www.w3.org/2000/svg" xmlns:xlink="http://www.w3.org/1999/xlink" width="16" height="16" version="1.1" viewBox="0 0 16 16"><title>ic_close_16</title><desc>Created with Sketch.</desc><g id="ic_close_16" fill="none" fill-rule="evenodd" stroke="none" stroke-width="1"><g id="退出全屏" fill="#D8D8D8" opacity="0"><rect id="矩形" width="16" height="16" x="0" y="0"/></g><g id="删除X-默认-01" fill="#999" fill-rule="nonzero" transform="translate(3.000000, 3.000000)"><path id="Combined-Shape" d="M5,4.29289322 L9.14644661,0.146446609 C9.34170876,-0.0488155365 9.65829124,-0.0488155365 9.85355339,0.146446609 C10.0488155,0.341708755 10.0488155,0.658291245 9.85355339,0.853553391 L5.70710678,5 L9.85355339,9.14644661 C10.0488155,9.34170876 10.0488155,9.65829124 9.85355339,9.85355339 C9.65829124,10.0488155 9.34170876,10.0488155 9.14644661,9.85355339 L5,5.70710678 L0.853553391,9.85355339 C0.658291245,10.0488155 0.341708755,10.0488155 0.146446609,9.85355339 C-0.0488155365,9.65829124 -0.0488155365,9.34170876 0.146446609,9.14644661 L4.29289322,5 L0.146446609,0.853553391 C-0.0488155365,0.658291245 -0.0488155365,0.341708755 0.146446609,0.146446609 C0.341708755,-0.0488155365 0.658291245,-0.0488155365 0.853553391,0.146446609 L5,4.29289322 Z"/></g></g></svg>