<svg xmlns="http://www.w3.org/2000/svg" xmlns:xlink="http://www.w3.org/1999/xlink" width="14" height="14" version="1.1" viewBox="0 0 14 14"><title>ic_json_normal</title><desc>Created with Sketch.</desc><g id="ic_json_normal" fill="none" fill-rule="evenodd" stroke="none" stroke-width="1"><g id="Json" stroke="#666"><path id="Stroke-1" fill="#666" fill-rule="nonzero" stroke-width=".667" d="M10.5173315,7.50004954 L12.9372354,9.67170868 C13.0209202,9.74680865 13.0209217,9.86857115 12.9372389,9.94367283 C12.8535561,10.0187745 12.7178779,10.0187759 12.6341931,9.94367593 L10.0627646,7.63603626 C9.97907983,7.56093629 9.97907828,7.4391738 10.0627611,7.36407212 L12.6341897,5.05632717 C12.7178725,4.98122549 12.8535507,4.9812241 12.9372354,5.05632407 C13.0209202,5.13142404 13.0209217,5.25318653 12.9372389,5.32828821 L10.5173315,7.50004954 Z" transform="translate(11.500000, 7.500000) scale(-1, 1) translate(-11.500000, -7.500000)"/><path id="Stroke-1备份" fill="#666" fill-rule="nonzero" stroke-width=".667" d="M1.51733148,7.50004954 L3.93723544,9.67170868 C4.02092017,9.74680865 4.02092172,9.86857115 3.9372389,9.94367283 C3.85355607,10.0187745 3.71787786,10.0187759 3.63419313,9.94367593 L1.06276456,7.63603626 C0.97907983,7.56093629 0.979078282,7.4391738 1.0627611,7.36407212 L3.63418968,5.05632717 C3.7178725,4.98122549 3.85355071,4.9812241 3.93723544,5.05632407 C4.02092017,5.13142404 4.02092172,5.25318653 3.9372389,5.32828821 L1.51733148,7.50004954 Z" transform="translate(2.500000, 7.500000) scale(1, -1) translate(-2.500000, -7.500000)"/><path id="直线-8" stroke-linecap="round" stroke-linejoin="round" stroke-width="1.2" d="M7,2.5 L7,12.5" transform="translate(7.000000, 7.250000) rotate(15.000000) translate(-7.000000, -7.250000)"/></g></g></svg>